<svg xmlns="http://www.w3.org/2000/svg" viewBox="0 0 240 240" width="240" height="240" font-family="'Hiragino Sans','Noto Sans JP','Yu Gothic','Noto Sans CJK JP','Noto Serif CJK JP',sans-serif"><rect width="240" height="240" fill="#fff"/><text x="50" y="40" font-size="20" text-anchor="end" fill="#222" font-weight="bold">2</text><rect x="70" y="20" width="26" height="26" fill="#fff" stroke="#222" stroke-width="2"/><rect x="100" y="20" width="26" height="26" fill="#fff" stroke="#222" stroke-width="2"/><rect x="130" y="20" width="26" height="26" fill="#fff" stroke="#222" stroke-width="2"/><rect x="160" y="20" width="26" height="26" fill="#222" stroke="#222" stroke-width="2"/><rect x="190" y="20" width="26" height="26" fill="#fff" stroke="#222" stroke-width="2"/><text x="50" y="84" font-size="20" text-anchor="end" fill="#222" font-weight="bold">5</text><rect x="70" y="64" width="26" height="26" fill="#fff" stroke="#222" stroke-width="2"/><rect x="100" y="64" width="26" height="26" fill="#fff" stroke="#222" stroke-width="2"/><rect x="130" y="64" width="26" height="26" fill="#222" stroke="#222" stroke-width="2"/><rect x="160" y="64" width="26" height="26" fill="#fff" stroke="#222" stroke-width="2"/><rect x="190" y="64" width="26" height="26" fill="#222" stroke="#222" stroke-width="2"/><text x="50" y="128" font-size="20" text-anchor="end" fill="#222" font-weight="bold">10</text><rect x="70" y="108" width="26" height="26" fill="#fff" stroke="#222" stroke-width="2"/><rect x="100" y="108" width="26" height="26" fill="#222" stroke="#222" stroke-width="2"/><rect x="130" y="108" width="26" height="26" fill="#fff" stroke="#222" stroke-width="2"/><rect x="160" y="108" width="26" height="26" fill="#222" stroke="#222" stroke-width="2"/><rect x="190" y="108" width="26" height="26" fill="#fff" stroke="#222" stroke-width="2"/><text x="50" y="172" font-size="20" text-anchor="end" fill="#222" font-weight="bold">21</text><rect x="70" y="152" width="26" height="26" fill="#222" stroke="#222" stroke-width="2"/><rect x="100" y="152" width="26" height="26" fill="#fff" stroke="#222" stroke-width="2"/><rect x="130" y="152" width="26" height="26" fill="#222" stroke="#222" stroke-width="2"/><rect x="160" y="152" width="26" height="26" fill="#fff" stroke="#222" stroke-width="2"/><rect x="190" y="152" width="26" height="26" fill="#222" stroke="#222" stroke-width="2"/><text x="50" y="216" font-size="20" text-anchor="end" fill="#c0392b" font-weight="bold">？</text><rect x="70" y="196" width="26" height="26" fill="#222" stroke="#222" stroke-width="2"/><rect x="100" y="196" width="26" height="26" fill="#222" stroke="#222" stroke-width="2"/><rect x="130" y="196" width="26" height="26" fill="#fff" stroke="#222" stroke-width="2"/><rect x="160" y="196" width="26" height="26" fill="#fff" stroke="#222" stroke-width="2"/><rect x="190" y="196" width="26" height="26" fill="#fff" stroke="#222" stroke-width="2"/></svg>