<svg xmlns="http://www.w3.org/2000/svg" viewBox="0 0 520 320" width="520" height="320" font-family="'Hiragino Sans','Noto Sans JP','Yu Gothic','Noto Sans CJK JP','Noto Serif CJK JP',sans-serif"><rect width="520" height="320" fill="#fff"/><defs><marker id="a" viewBox="0 0 10 10" refX="9" refY="5" markerWidth="8" markerHeight="8" orient="auto-start-reverse"><path d="M0,0 L10,5 L0,10z" fill="#222"/></marker></defs><line x1="116.66666666666666" y1="20" x2="116.66666666666666" y2="260" stroke="#888" stroke-dasharray="5 4"/><line x1="163.33333333333331" y1="20" x2="163.33333333333331" y2="260" stroke="#888" stroke-dasharray="5 4"/><line x1="210.0" y1="20" x2="210.0" y2="260" stroke="#888" stroke-dasharray="5 4"/><line x1="256.66666666666663" y1="20" x2="256.66666666666663" y2="260" stroke="#888" stroke-dasharray="5 4"/><line x1="303.33333333333337" y1="20" x2="303.33333333333337" y2="260" stroke="#888" stroke-dasharray="5 4"/><line x1="350.0" y1="20" x2="350.0" y2="260" stroke="#888" stroke-dasharray="5 4"/><line x1="396.6666666666667" y1="20" x2="396.6666666666667" y2="260" stroke="#888" stroke-dasharray="5 4"/><line x1="443.3333333333333" y1="20" x2="443.3333333333333" y2="260" stroke="#888" stroke-dasharray="5 4"/><line x1="490.0" y1="20" x2="490.0" y2="260" stroke="#888" stroke-dasharray="5 4"/><line x1="70" y1="260" x2="510" y2="260" stroke="#222" stroke-width="2" marker-end="url(#a)"/><line x1="70" y1="260" x2="70" y2="10" stroke="#222" stroke-width="2" marker-end="url(#a)"/><path d="M70.0,140.4 C73.1,159.2 80.9,254.6 88.7,253.1 C96.4,251.6 104.2,163.0 116.7,131.2 C129.1,99.4 147.8,56.5 163.3,62.2 C178.9,68.0 194.4,162.2 210.0,165.7 C225.6,169.1 241.1,88.7 256.7,82.9 C272.2,77.2 287.8,127.4 303.3,131.2 C318.9,135.0 334.4,100.1 350.0,105.9 C365.6,111.6 381.1,174.9 396.7,165.7 C412.2,156.5 427.8,56.1 443.3,50.7 C458.9,45.3 482.2,119.7 490.0,133.5" fill="none" stroke="#c0392b" stroke-width="2.5"/><circle cx="70.0" cy="140.39999999999998" r="5" fill="#c0392b"/><circle cx="116.66666666666666" cy="131.2" r="5" fill="#c0392b"/><circle cx="163.33333333333331" cy="62.20000000000002" r="5" fill="#c0392b"/><circle cx="210.0" cy="165.7" r="5" fill="#c0392b"/><circle cx="256.66666666666663" cy="82.9" r="5" fill="#c0392b"/><circle cx="303.33333333333337" cy="131.2" r="5" fill="#c0392b"/><circle cx="350.0" cy="105.89999999999998" r="5" fill="#c0392b"/><circle cx="396.6666666666667" cy="165.7" r="5" fill="#c0392b"/><circle cx="443.3333333333333" cy="50.69999999999999" r="5" fill="#c0392b"/><circle cx="490.0" cy="133.5" r="5" fill="#c0392b"/><text x="62" y="24" font-size="14" text-anchor="end" fill="#222">圧力</text><text x="62" y="42" font-size="14" text-anchor="end" fill="#222">(音圧)</text><text x="70" y="282" font-size="14" text-anchor="middle" fill="#222">0秒</text><text x="490" y="282" font-size="14" text-anchor="middle" fill="#222">0.01秒</text><text x="510" y="252" font-size="14" text-anchor="end" fill="#222">時間</text></svg>